<svg version="1.1" id="Layer_1" xmlns="http://www.w3.org/2000/svg" xmlns:xlink="http://www.w3.org/1999/xlink" x="0px" y="0px"
	 width="100%" viewBox="0 0 512 512" enable-background="new 0 0 512 512" xml:space="preserve">
<path fill="#282727" opacity="1.000000" stroke="none" 
	d="
M1.000003,483.000000 
	C1.000000,371.979095 1.000000,260.958221 1.361175,149.445587 
	C4.170795,147.961105 6.619241,146.968323 9.435937,146.004959 
	C16.449257,147.818253 18.024181,149.994797 18.024624,157.580841 
	C18.030645,260.731079 18.025671,363.881348 18.033167,467.031586 
	C18.034529,485.785065 28.293175,495.967560 47.159504,495.968689 
	C123.480698,495.973358 199.801880,495.970886 276.123077,495.970490 
	C300.619171,495.970398 325.115295,495.963165 349.611389,495.970734 
	C358.086151,495.973358 365.233948,493.053040 370.707977,486.445282 
	C375.332062,480.863525 376.370728,474.311584 376.366028,467.259155 
	C376.296021,362.275879 376.319031,257.292572 376.317047,152.309280 
	C376.316620,130.312836 376.449005,108.315041 376.246368,86.320389 
	C376.109100,71.420013 365.419067,60.992149 350.505127,60.882874 
	C335.175018,60.770546 319.843506,60.842690 304.512665,60.866413 
	C303.078827,60.868633 301.645355,61.102894 300.181946,61.232040 
	C300.181946,66.906166 300.181946,72.136276 300.181946,77.891335 
	C313.514862,77.891335 326.473419,77.881241 339.432007,77.894104 
	C353.134033,77.907700 359.254608,83.996071 359.255768,97.705452 
	C359.265778,218.019638 359.265320,338.333832 359.256500,458.648010 
	C359.255463,472.753052 352.986694,478.929779 338.751434,478.930206 
	C244.599747,478.932983 150.448074,478.932678 56.296387,478.930298 
	C41.285889,478.929932 35.069839,472.710724 35.069580,457.692383 
	C35.067516,338.044739 35.068382,218.397125 35.069546,98.749489 
	C35.069561,97.249794 35.015038,95.745865 35.105259,94.251106 
	C35.667633,84.933975 42.679268,78.039627 52.015923,77.936508 
	C64.345825,77.800323 76.678276,77.895378 89.009636,77.891251 
	C90.789169,77.890656 92.568703,77.891174 94.484421,77.891174 
	C94.484421,71.890839 94.484421,66.535049 94.484421,60.856033 
	C77.390106,60.856033 60.737656,60.757542 44.086937,60.885017 
	C28.855539,61.001625 18.170568,71.878868 18.049725,87.222618 
	C17.967047,97.720314 18.064249,108.219322 18.013298,118.717415 
	C17.980961,125.379738 15.748293,127.884697 8.685225,129.014359 
	C5.867270,128.002655 3.433634,127.001335 0.999999,126.000000 
	C1.000000,108.645775 1.000000,91.291542 1.348289,73.418365 
	C2.155760,72.260597 2.738961,71.677742 3.056031,70.974823 
	C11.514695,52.222775 26.061417,42.978680 46.584908,43.001278 
	C61.559868,43.017765 76.535271,42.946732 91.509499,43.052513 
	C94.476776,43.073471 96.482567,42.380810 97.860939,39.487801 
	C101.260910,32.351704 107.431213,28.011641 114.871155,27.073948 
	C124.204887,25.897570 133.756668,26.556967 143.169922,25.840424 
	C145.939804,25.629578 149.409042,24.125538 151.095963,22.034731 
	C157.436432,14.176235 165.328735,8.783022 174.521072,4.960024 
	C177.114471,3.881458 179.512405,2.332964 182.000000,1.000001 
	C192.020889,1.000000 202.041794,1.000000 212.581543,1.354980 
	C213.736954,2.181445 214.306030,2.871647 215.020081,3.091869 
	C227.335754,6.890154 237.138824,14.204893 245.220367,24.126474 
	C246.158340,25.278013 248.345779,25.886986 249.972000,25.922588 
	C258.129486,26.101168 266.300476,25.784571 274.452362,26.063046 
	C284.097473,26.392530 291.735474,30.726625 296.467346,39.211102 
	C298.111511,42.159199 299.880096,43.098618 303.099091,43.069141 
	C318.754272,42.925800 334.411530,42.984901 350.067993,43.009514 
	C374.858551,43.048485 393.993164,62.192570 393.993591,86.939636 
	C393.995850,214.190323 393.982574,341.441010 394.006927,468.691681 
	C394.010651,488.157257 385.174042,501.882263 367.656372,510.194916 
	C366.299469,510.838837 365.212463,512.051636 364.000000,513.000000 
	C253.312439,513.000000 142.624878,513.000000 31.415096,512.647095 
	C30.574800,511.931671 30.325361,511.374878 29.928675,511.234680 
	C16.839680,506.608704 7.916723,497.781372 3.003409,484.810638 
	C2.719677,484.061615 1.685135,483.596985 1.000003,483.000000 
M326.497559,94.925034 
	C317.833038,94.925110 309.167297,94.852852 300.505127,94.995743 
	C299.044067,95.019852 297.060028,95.540337 296.235840,96.567940 
	C291.963715,101.894409 286.397736,103.399445 279.873291,103.382042 
	C244.215012,103.286980 208.556320,103.336922 172.897781,103.336815 
	C153.235596,103.336761 133.573227,103.290695 113.911346,103.367599 
	C108.890099,103.387238 103.737228,102.818184 100.696541,98.803574 
	C97.733055,94.890892 94.296425,94.870819 90.282639,94.898399 
	C79.119041,94.975105 67.954559,94.916847 56.790462,94.935158 
	C55.348087,94.937523 53.905937,95.077057 52.485771,95.151886 
	C52.485771,217.540802 52.485771,339.565735 52.485771,461.523346 
	C149.228409,461.523346 245.610764,461.523346 342.046082,461.523346 
	C342.046082,339.252411 342.046082,217.332382 342.046082,94.925034 
	C337.072723,94.925034 332.284729,94.925034 326.497559,94.925034 
M281.592682,48.240471 
	C279.610626,44.859554 276.585358,43.689964 272.770325,43.727913 
	C263.442352,43.820717 254.108826,43.592682 244.785385,43.817902 
	C239.428574,43.947304 235.839020,42.054379 232.817032,37.456379 
	C215.818878,11.593507 178.862137,11.535270 161.805649,37.355625 
	C158.656815,42.122360 154.907394,43.971794 149.379181,43.825565 
	C139.890427,43.574574 130.388855,43.673904 120.895027,43.801762 
	C115.730286,43.871323 112.198959,46.736626 112.099548,51.437695 
	C111.857529,62.882931 112.020729,74.336739 112.020729,85.997528 
	C169.001251,85.997528 225.553986,85.997528 281.920135,85.997528 
	C281.920135,73.491951 281.920135,61.236942 281.592682,48.240471 
z"/>
<path fill="#000000" opacity="1.000000" stroke="none" 
	d="
M364.468658,513.000000 
	C365.212463,512.051636 366.299469,510.838837 367.656372,510.194916 
	C385.174042,501.882263 394.010651,488.157257 394.006927,468.691681 
	C393.982574,341.441010 393.995850,214.190323 393.993591,86.939636 
	C393.993164,62.192570 374.858551,43.048485 350.067993,43.009514 
	C334.411530,42.984901 318.754272,42.925800 303.099091,43.069141 
	C299.880096,43.098618 298.111511,42.159199 296.467346,39.211102 
	C291.735474,30.726625 284.097473,26.392530 274.452362,26.063046 
	C266.300476,25.784571 258.129486,26.101168 249.972000,25.922588 
	C248.345779,25.886986 246.158340,25.278013 245.220367,24.126474 
	C237.138824,14.204893 227.335754,6.890154 215.020081,3.091869 
	C214.306030,2.871647 213.736954,2.181445 213.050201,1.354980 
	C312.904633,1.000000 412.809235,1.000000 513.000000,1.000000 
	C513.000000,53.687214 513.000000,106.374947 512.654419,159.480438 
	C505.845551,147.166824 496.326477,138.598373 481.558258,136.827881 
	C480.567047,136.709061 479.162720,134.348633 479.115997,132.990692 
	C478.869965,125.835228 479.298859,118.648598 478.864380,111.511086 
	C478.661407,108.176590 478.030548,103.838371 475.858490,101.864624 
	C471.113525,97.552948 470.618317,92.643829 470.963684,87.014328 
	C471.157135,83.860870 471.075256,80.683182 470.978455,77.520668 
	C470.723663,69.196350 465.771423,62.323734 457.638916,61.131351 
	C449.978394,60.008183 442.023895,59.658863 434.323212,60.352009 
	C424.614166,61.225929 417.855042,70.281082 418.894287,78.585106 
	C419.489624,83.341988 419.153381,88.241989 418.916016,93.061775 
	C418.835602,94.694290 418.241455,96.905701 417.077179,97.777176 
	C411.731903,101.778122 410.006561,107.201813 410.006256,113.480888 
	C410.000946,224.770813 409.965363,336.060822 410.127319,447.350494 
	C410.134369,452.199493 411.131622,457.419342 413.099304,461.827362 
	C420.771973,479.015778 426.020935,497.358673 437.000000,513.000000 
	C412.979095,513.000000 388.958221,513.000000 364.468658,513.000000 
z"/>
<path fill="#262727" opacity="1.000000" stroke="none" 
	d="
M437.466125,513.000000 
	C426.020935,497.358673 420.771973,479.015778 413.099304,461.827362 
	C411.131622,457.419342 410.134369,452.199493 410.127319,447.350494 
	C409.965363,336.060822 410.000946,224.770813 410.006256,113.480888 
	C410.006561,107.201813 411.731903,101.778122 417.077179,97.777176 
	C418.241455,96.905701 418.835602,94.694290 418.916016,93.061775 
	C419.153381,88.241989 419.489624,83.341988 418.894287,78.585106 
	C417.855042,70.281082 424.614166,61.225929 434.323212,60.352009 
	C442.023895,59.658863 449.978394,60.008183 457.638916,61.131351 
	C465.771423,62.323734 470.723663,69.196350 470.978455,77.520668 
	C471.075256,80.683182 471.157135,83.860870 470.963684,87.014328 
	C470.618317,92.643829 471.113525,97.552948 475.858490,101.864624 
	C478.030548,103.838371 478.661407,108.176590 478.864380,111.511086 
	C479.298859,118.648598 478.869965,125.835228 479.115997,132.990692 
	C479.162720,134.348633 480.567047,136.709061 481.558258,136.827881 
	C496.326477,138.598373 505.845551,147.166824 512.654419,159.949097 
	C513.000000,198.354233 513.000000,236.708450 512.657471,275.568604 
	C511.841919,276.511414 511.254974,276.873779 510.913147,277.396454 
	C506.198730,284.604462 500.429077,290.380981 491.273743,291.091827 
	C487.298676,291.400482 483.279694,291.143585 478.997711,291.143585 
	C478.997711,293.214325 478.997711,295.030121 478.997711,296.845917 
	C478.997711,342.634003 478.794647,388.423523 479.123383,434.209229 
	C479.220123,447.682678 478.557953,460.654785 471.969147,472.840485 
	C464.858429,485.991394 462.438324,501.486420 452.000000,513.000000 
	C447.310760,513.000000 442.621490,513.000000 437.466125,513.000000 
M461.919281,244.500000 
	C461.919250,227.848450 461.736023,211.193604 462.034729,194.547409 
	C462.120514,189.766312 460.504730,188.614304 456.067688,188.797104 
	C448.420929,189.112152 440.743225,189.101379 433.095459,188.798767 
	C428.892822,188.632477 427.740295,190.070816 427.771057,194.179825 
	C427.944183,217.324265 427.854156,240.470688 427.854126,263.616425 
	C427.854065,299.084351 427.971588,334.553101 427.726044,370.019318 
	C427.689758,375.258301 429.296173,376.591156 434.229034,376.321564 
	C441.367889,375.931458 448.566437,375.874817 455.696625,376.337280 
	C460.904572,376.675049 462.054474,374.862640 462.030884,369.887024 
	C461.834229,328.425415 461.919128,286.962524 461.919281,244.500000 
M495.994598,221.500000 
	C495.993561,205.172714 496.042053,188.845230 495.971069,172.518250 
	C495.934479,164.093735 491.133392,157.509323 483.926331,155.436844 
	C480.644501,154.493118 478.923737,155.026611 478.932648,158.983917 
	C479.012756,194.470535 478.910706,229.957932 479.158264,265.443024 
	C479.174774,267.809052 481.043335,270.925476 483.018158,272.369904 
	C488.714203,276.536163 495.856750,272.130859 495.943359,264.483917 
	C496.101837,250.490875 495.992310,236.494797 495.994598,221.500000 
M427.848022,118.602135 
	C427.849823,123.748894 427.952301,128.898361 427.813629,134.041336 
	C427.737152,136.878830 428.916870,137.840012 431.645813,137.811966 
	C440.278168,137.723251 448.912933,137.707367 457.544769,137.818848 
	C460.668945,137.859192 462.076965,136.828018 461.973450,133.507416 
	C461.792419,127.702232 461.762756,121.881119 461.985626,116.078804 
	C462.116913,112.659821 460.670624,111.868492 457.566620,111.930290 
	C449.600616,112.088898 441.619690,112.217041 433.663940,111.890007 
	C429.197479,111.706421 427.044922,112.934410 427.848022,118.602135 
M459.102264,410.801331 
	C460.040192,409.752777 461.619202,408.797455 461.788055,407.637024 
	C462.189880,404.874908 461.692078,401.991577 461.982758,399.201477 
	C462.447601,394.740295 460.957245,392.852325 456.223755,393.174591 
	C450.940155,393.534332 445.613129,393.256805 440.305023,393.256775 
	C427.520752,393.256744 427.628448,393.255554 427.774231,406.252991 
	C427.812408,409.652649 428.771820,410.964233 432.302002,410.884369 
	C440.923309,410.689392 449.551941,410.819305 459.102264,410.801331 
M439.520264,154.865082 
	C427.719543,154.865784 427.719635,154.865784 427.892731,166.808273 
	C427.895142,166.974625 427.911316,167.143295 427.890808,167.307083 
	C427.463928,170.718246 428.836060,172.092773 432.379974,171.958389 
	C438.194946,171.737869 444.024475,171.900558 449.847839,171.900711 
	C462.275421,171.901062 462.168030,171.902130 462.015717,159.478058 
	C461.974274,156.097733 461.055603,154.663010 457.481384,154.806915 
	C451.833588,155.034302 446.169830,154.865677 439.520264,154.865082 
M461.830231,443.051361 
	C461.857239,439.065002 462.128479,435.055878 461.760712,431.106262 
	C461.652039,429.939514 459.764435,428.038208 458.649628,428.007355 
	C449.518707,427.754547 440.282898,427.057892 431.269623,428.117645 
	C423.963715,428.976654 429.201843,435.659332 428.000214,439.517883 
	C427.296326,441.778046 427.023682,445.001251 431.451202,444.925934 
	C440.586517,444.770569 449.726501,444.902557 458.863892,444.831848 
	C459.765747,444.824890 460.663086,444.233337 461.830231,443.051361 
M455.964966,465.298431 
	C456.255951,464.269653 456.546936,463.240875 456.844543,462.188599 
	C448.631836,462.188599 440.765076,462.188599 432.235291,462.188599 
	C436.411774,472.013092 440.369568,481.323212 444.707764,491.528137 
	C448.620789,482.432800 452.145416,474.240204 455.964966,465.298431 
M439.777100,94.959206 
	C443.107758,94.955696 446.464264,95.186714 449.755310,94.823784 
	C450.935913,94.693588 452.803406,93.214531 452.902893,92.207413 
	C453.277588,88.414429 453.762939,84.390732 452.888275,80.772163 
	C451.549225,75.232498 446.566833,78.414253 443.299347,78.147079 
	C440.954193,77.955338 436.703278,75.771339 436.168335,80.739899 
	C435.760712,84.526108 435.901978,88.406120 436.211365,92.210869 
	C436.290588,93.185280 437.931000,94.032753 439.777100,94.959206 
z"/>
<path fill="#000000" opacity="1.000000" stroke="none" 
	d="
M452.468658,513.000000 
	C462.438324,501.486420 464.858429,485.991394 471.969147,472.840485 
	C478.557953,460.654785 479.220123,447.682678 479.123383,434.209229 
	C478.794647,388.423523 478.997711,342.634003 478.997711,296.845917 
	C478.997711,295.030121 478.997711,293.214325 478.997711,291.143585 
	C483.279694,291.143585 487.298676,291.400482 491.273743,291.091827 
	C500.429077,290.380981 506.198730,284.604462 510.913147,277.396454 
	C511.254974,276.873779 511.841919,276.511414 512.657471,276.037231 
	C513.000000,354.883881 513.000000,433.767731 513.000000,513.000000 
	C492.980438,513.000000 472.958893,513.000000 452.468658,513.000000 
z"/>
<path fill="#000000" opacity="1.000000" stroke="none" 
	d="
M181.531342,1.000001 
	C179.512405,2.332964 177.114471,3.881458 174.521072,4.960024 
	C165.328735,8.783022 157.436432,14.176235 151.095963,22.034731 
	C149.409042,24.125538 145.939804,25.629578 143.169922,25.840424 
	C133.756668,26.556967 124.204887,25.897570 114.871155,27.073948 
	C107.431213,28.011641 101.260910,32.351704 97.860939,39.487801 
	C96.482567,42.380810 94.476776,43.073471 91.509499,43.052513 
	C76.535271,42.946732 61.559868,43.017765 46.584908,43.001278 
	C26.061417,42.978680 11.514695,52.222775 3.056031,70.974823 
	C2.738961,71.677742 2.155760,72.260597 1.348289,72.949707 
	C1.000000,49.041565 1.000000,25.083134 1.000000,1.000000 
	C61.020840,1.000000 121.041763,1.000000 181.531342,1.000001 
z"/>
<path fill="#000000" opacity="1.000000" stroke="none" 
	d="
M1.000003,483.468658 
	C1.685135,483.596985 2.719677,484.061615 3.003409,484.810638 
	C7.916723,497.781372 16.839680,506.608704 29.928675,511.234680 
	C30.325361,511.374878 30.574800,511.931671 30.946440,512.647095 
	C21.073498,513.000000 11.146996,513.000000 1.000000,513.000000 
	C1.000000,503.313538 1.000000,493.625427 1.000003,483.468658 
z"/>
<path fill="#000000" opacity="1.000000" stroke="none" 
	d="
M9.067685,145.975540 
	C6.619241,146.968323 4.170795,147.961105 1.361175,148.976929 
	C1.000000,141.645752 1.000000,134.291504 0.999999,126.468628 
	C3.433634,127.001335 5.867270,128.002655 8.655335,129.478897 
	C9.029071,135.294388 9.048378,140.634964 9.067685,145.975540 
z"/>
<path fill="#F2F8FE" opacity="1.000000" stroke="none" 
	d="
M326.997131,94.925034 
	C332.284729,94.925034 337.072723,94.925034 342.046082,94.925034 
	C342.046082,217.332382 342.046082,339.252411 342.046082,461.523346 
	C245.610764,461.523346 149.228409,461.523346 52.485771,461.523346 
	C52.485771,339.565735 52.485771,217.540802 52.485771,95.151886 
	C53.905937,95.077057 55.348087,94.937523 56.790462,94.935158 
	C67.954559,94.916847 79.119041,94.975105 90.282639,94.898399 
	C94.296425,94.870819 97.733055,94.890892 100.696541,98.803574 
	C103.737228,102.818184 108.890099,103.387238 113.911346,103.367599 
	C133.573227,103.290695 153.235596,103.336761 172.897781,103.336815 
	C208.556320,103.336922 244.215012,103.286980 279.873291,103.382042 
	C286.397736,103.399445 291.963715,101.894409 296.235840,96.567940 
	C297.060028,95.540337 299.044067,95.019852 300.505127,94.995743 
	C309.167297,94.852852 317.833038,94.925110 326.997131,94.925034 
M291.079102,274.500031 
	C291.079102,238.937515 291.079102,203.375000 291.079102,166.428207 
	C294.882721,170.298477 297.724335,173.250992 300.633148,176.135757 
	C305.343628,180.807281 310.424683,181.290344 314.149017,177.483139 
	C317.845520,173.704407 317.447388,168.901260 312.885498,164.297897 
	C305.146759,156.488785 297.371826,148.714615 289.538849,141.000137 
	C284.880463,136.412216 280.320740,136.393188 275.632874,141.002701 
	C267.675232,148.827332 259.791443,156.728271 251.955826,164.675262 
	C247.849213,168.840225 247.580078,173.978241 251.063370,177.512024 
	C254.615417,181.115524 259.634644,180.896576 263.868195,176.805481 
	C267.036499,173.743820 270.063202,170.535614 273.318268,167.224518 
	C273.752747,168.139709 273.995514,168.412308 273.995575,168.684967 
	C274.006531,212.663315 274.054749,256.641815 273.938354,300.619843 
	C273.919830,307.620392 268.852264,313.972473 262.241730,315.819519 
	C259.563660,316.567810 256.659943,316.771027 253.858276,316.774994 
	C212.544983,316.833466 171.231445,316.753967 129.918259,316.846039 
	C111.536453,316.886993 96.201492,329.501160 95.297958,346.772339 
	C94.324532,365.379578 94.921822,384.073975 95.031578,402.729218 
	C95.056747,407.006348 98.579567,410.171143 102.726204,410.528595 
	C106.826744,410.882080 110.627205,408.221344 111.620605,404.057434 
	C111.999916,402.467529 111.952179,400.755585 111.954620,399.099030 
	C111.978180,383.106781 111.914314,367.114258 111.996124,351.122375 
	C112.037735,342.989960 116.967010,336.389374 124.483406,334.470764 
	C126.856369,333.865082 129.431976,333.903259 131.915039,333.901337 
	C172.728638,333.869568 213.542282,333.898438 254.355881,333.870636 
	C276.900024,333.855286 291.039062,319.619659 291.076935,296.989685 
	C291.088898,289.826508 291.078979,282.663269 291.079102,274.500031 
M128.607422,205.712967 
	C132.651031,205.488480 135.698822,203.688721 136.924240,199.738388 
	C138.136505,195.830490 136.661346,192.620529 133.723770,189.893219 
	C130.464371,186.867157 127.337265,183.698578 123.373024,179.831665 
	C127.090698,176.478851 130.539719,173.596527 133.721085,170.444107 
	C138.168976,166.036667 138.512680,160.906876 134.874298,157.257034 
	C131.221512,153.592743 126.094711,153.917465 121.723915,158.424118 
	C118.536278,161.710846 115.684517,165.323334 112.461731,169.046249 
	C109.782608,166.182007 108.325729,164.580948 106.820145,163.027084 
	C105.313202,161.471817 103.776009,159.944687 102.219818,158.438553 
	C97.666695,154.031876 92.716774,153.578094 89.033813,157.206924 
	C85.290794,160.894928 85.558022,165.993134 90.091629,170.364075 
	C93.392021,173.546051 97.052788,176.354263 100.884842,179.611252 
	C96.182465,184.140915 92.733467,187.286652 89.489914,190.631622 
	C85.277672,194.975662 85.112312,199.792542 88.830933,203.428177 
	C92.506912,207.022079 97.310509,206.789047 101.642151,202.528015 
	C105.036201,199.189270 108.183136,195.599335 112.092308,191.424149 
	C114.069992,193.853470 115.125961,195.639023 116.625366,196.895340 
	C120.257973,199.939011 124.097130,202.736160 128.607422,205.712967 
M214.117935,214.474976 
	C214.083740,210.518539 212.137253,207.789886 208.512009,206.451218 
	C204.823944,205.089340 201.607681,206.272461 199.026413,209.077682 
	C195.777893,212.607956 192.637756,216.237946 189.160355,220.151886 
	C185.211777,216.037415 182.270966,212.855942 179.202438,209.802795 
	C174.496262,205.120331 169.401398,204.696747 165.674545,208.554947 
	C161.952164,212.408508 162.336594,217.069672 167.049637,221.673416 
	C170.248489,224.798096 173.723755,227.639816 177.705109,231.165771 
	C173.447296,235.110138 170.055893,238.065567 166.880692,241.237442 
	C162.261688,245.851578 161.885666,250.573135 165.606445,254.378830 
	C169.303253,258.160034 174.235870,257.852509 178.784958,253.418427 
	C182.081039,250.205627 185.246841,246.859177 188.978928,243.054214 
	C192.612823,246.920731 195.694931,250.410629 199.004807,253.669144 
	C203.235306,257.833984 208.203247,257.966858 211.798141,254.254303 
	C215.128845,250.814621 214.987152,245.717957 211.143982,241.776276 
	C207.796951,238.343445 204.173035,235.180573 200.273300,231.525192 
	C203.134949,228.827835 205.667572,226.855621 207.671616,224.444138 
	C210.045609,221.587494 211.963928,218.352158 214.117935,214.474976 
M207.512360,380.149750 
	C204.691879,384.732361 205.714020,388.713562 209.502243,392.168060 
	C212.907761,395.273560 216.397461,398.286743 220.233002,401.679413 
	C216.168777,405.543884 213.106171,408.350891 210.162964,411.277985 
	C205.123444,416.289948 204.437515,421.324738 208.161453,425.142944 
	C212.176361,429.259552 216.945984,428.647614 222.357361,423.131805 
	C225.261307,420.171844 227.958267,417.008820 231.469940,413.143494 
	C235.209824,417.260590 238.200287,420.800293 241.456604,424.075714 
	C245.675552,428.319427 250.614944,428.622742 254.246658,425.146881 
	C258.064972,421.492462 257.800385,416.496918 253.397537,411.973938 
	C250.191940,408.680878 246.838242,405.532013 242.913330,401.696045 
	C245.241302,399.734192 247.066406,398.297089 248.772263,396.730164 
	C250.485489,395.156403 252.116714,393.488281 253.719177,391.800110 
	C257.790375,387.510803 258.052551,382.598633 254.450012,378.992981 
	C250.900360,375.440186 245.866043,375.683319 241.648697,379.828979 
	C238.269470,383.150787 235.088608,386.674408 231.367645,390.583374 
	C227.709381,386.689514 224.727966,383.332855 221.548615,380.175537 
	C216.928925,375.587830 213.204224,375.480774 207.512360,380.149750 
z"/>
<path fill="#BF7E49" opacity="1.000000" stroke="none" 
	d="
M9.435936,146.004959 
	C9.048378,140.634964 9.029071,135.294388 9.039654,129.489273 
	C15.748293,127.884697 17.980961,125.379738 18.013298,118.717415 
	C18.064249,108.219322 17.967047,97.720314 18.049725,87.222618 
	C18.170568,71.878868 28.855539,61.001625 44.086937,60.885017 
	C60.737656,60.757542 77.390106,60.856033 94.484421,60.856033 
	C94.484421,66.535049 94.484421,71.890839 94.484421,77.891174 
	C92.568703,77.891174 90.789169,77.890656 89.009636,77.891251 
	C76.678276,77.895378 64.345825,77.800323 52.015923,77.936508 
	C42.679268,78.039627 35.667633,84.933975 35.105259,94.251106 
	C35.015038,95.745865 35.069561,97.249794 35.069546,98.749489 
	C35.068382,218.397125 35.067516,338.044739 35.069580,457.692383 
	C35.069839,472.710724 41.285889,478.929932 56.296387,478.930298 
	C150.448074,478.932678 244.599747,478.932983 338.751434,478.930206 
	C352.986694,478.929779 359.255463,472.753052 359.256500,458.648010 
	C359.265320,338.333832 359.265778,218.019638 359.255768,97.705452 
	C359.254608,83.996071 353.134033,77.907700 339.432007,77.894104 
	C326.473419,77.881241 313.514862,77.891335 300.181946,77.891335 
	C300.181946,72.136276 300.181946,66.906166 300.181946,61.232040 
	C301.645355,61.102894 303.078827,60.868633 304.512665,60.866413 
	C319.843506,60.842690 335.175018,60.770546 350.505127,60.882874 
	C365.419067,60.992149 376.109100,71.420013 376.246368,86.320389 
	C376.449005,108.315041 376.316620,130.312836 376.317047,152.309280 
	C376.319031,257.292572 376.296021,362.275879 376.366028,467.259155 
	C376.370728,474.311584 375.332062,480.863525 370.707977,486.445282 
	C365.233948,493.053040 358.086151,495.973358 349.611389,495.970734 
	C325.115295,495.963165 300.619171,495.970398 276.123077,495.970490 
	C199.801880,495.970886 123.480698,495.973358 47.159504,495.968689 
	C28.293175,495.967560 18.034529,485.785065 18.033167,467.031586 
	C18.025671,363.881348 18.030645,260.731079 18.024624,157.580841 
	C18.024181,149.994797 16.449257,147.818253 9.435936,146.004959 
z"/>
<path fill="#BFD9EF" opacity="1.000000" stroke="none" 
	d="
M281.756409,48.611198 
	C281.920135,61.236942 281.920135,73.491951 281.920135,85.997528 
	C225.553986,85.997528 169.001251,85.997528 112.020729,85.997528 
	C112.020729,74.336739 111.857529,62.882931 112.099548,51.437695 
	C112.198959,46.736626 115.730286,43.871323 120.895027,43.801762 
	C130.388855,43.673904 139.890427,43.574574 149.379181,43.825565 
	C154.907394,43.971794 158.656815,42.122360 161.805649,37.355625 
	C178.862137,11.535270 215.818878,11.593507 232.817032,37.456379 
	C235.839020,42.054379 239.428574,43.947304 244.785385,43.817902 
	C254.108826,43.592682 263.442352,43.820717 272.770325,43.727913 
	C276.585358,43.689964 279.610626,44.859554 281.756409,48.611198 
M205.889481,47.546944 
	C205.875580,46.221478 205.960785,44.886158 205.830185,43.572289 
	C205.329102,38.530724 201.682358,35.026073 197.116135,35.113091 
	C192.459625,35.201824 189.071716,38.734997 188.838974,43.883457 
	C188.726822,46.364246 188.755310,48.855717 188.823975,51.339478 
	C188.977341,56.886333 192.195679,60.560062 196.989014,60.753567 
	C201.883240,60.951149 205.519150,57.146645 205.872559,51.425385 
	C205.933746,50.434696 205.886581,49.437313 205.889481,47.546944 
z"/>
<path fill="#247A8D" opacity="1.000000" stroke="none" 
	d="
M461.919189,245.000000 
	C461.919128,286.962524 461.834229,328.425415 462.030884,369.887024 
	C462.054474,374.862640 460.904572,376.675049 455.696625,376.337280 
	C448.566437,375.874817 441.367889,375.931458 434.229034,376.321564 
	C429.296173,376.591156 427.689758,375.258301 427.726044,370.019318 
	C427.971588,334.553101 427.854065,299.084351 427.854126,263.616425 
	C427.854156,240.470688 427.944183,217.324265 427.771057,194.179825 
	C427.740295,190.070816 428.892822,188.632477 433.095459,188.798767 
	C440.743225,189.101379 448.420929,189.112152 456.067688,188.797104 
	C460.504730,188.614304 462.120514,189.766312 462.034729,194.547409 
	C461.736023,211.193604 461.919250,227.848450 461.919189,245.000000 
z"/>
<path fill="#1B5270" opacity="1.000000" stroke="none" 
	d="
M495.994598,222.000000 
	C495.992310,236.494797 496.101837,250.490875 495.943359,264.483917 
	C495.856750,272.130859 488.714203,276.536163 483.018158,272.369904 
	C481.043335,270.925476 479.174774,267.809052 479.158264,265.443024 
	C478.910706,229.957932 479.012756,194.470535 478.932648,158.983917 
	C478.923737,155.026611 480.644501,154.493118 483.926331,155.436844 
	C491.133392,157.509323 495.934479,164.093735 495.971069,172.518250 
	C496.042053,188.845230 495.993561,205.172714 495.994598,222.000000 
z"/>
<path fill="#24788C" opacity="1.000000" stroke="none" 
	d="
M427.847870,118.119110 
	C427.044922,112.934410 429.197479,111.706421 433.663940,111.890007 
	C441.619690,112.217041 449.600616,112.088898 457.566620,111.930290 
	C460.670624,111.868492 462.116913,112.659821 461.985626,116.078804 
	C461.762756,121.881119 461.792419,127.702232 461.973450,133.507416 
	C462.076965,136.828018 460.668945,137.859192 457.544769,137.818848 
	C448.912933,137.707367 440.278168,137.723251 431.645813,137.811966 
	C428.916870,137.840012 427.737152,136.878830 427.813629,134.041336 
	C427.952301,128.898361 427.849823,123.748894 427.847870,118.119110 
z"/>
<path fill="#24788B" opacity="1.000000" stroke="none" 
	d="
M458.639954,410.809875 
	C449.551941,410.819305 440.923309,410.689392 432.302002,410.884369 
	C428.771820,410.964233 427.812408,409.652649 427.774231,406.252991 
	C427.628448,393.255554 427.520752,393.256744 440.305023,393.256775 
	C445.613129,393.256805 450.940155,393.534332 456.223755,393.174591 
	C460.957245,392.852325 462.447601,394.740295 461.982758,399.201477 
	C461.692078,401.991577 462.189880,404.874908 461.788055,407.637024 
	C461.619202,408.797455 460.040192,409.752777 458.639954,410.809875 
z"/>
<path fill="#1E6278" opacity="1.000000" stroke="none" 
	d="
M440.016541,154.864868 
	C446.169830,154.865677 451.833588,155.034302 457.481384,154.806915 
	C461.055603,154.663010 461.974274,156.097733 462.015717,159.478058 
	C462.168030,171.902130 462.275421,171.901062 449.847839,171.900711 
	C444.024475,171.900558 438.194946,171.737869 432.379974,171.958389 
	C428.836060,172.092773 427.463928,170.718246 427.890808,167.307083 
	C427.911316,167.143295 427.895142,166.974625 427.892731,166.808273 
	C427.719635,154.865784 427.719543,154.865784 440.016541,154.864868 
z"/>
<path fill="#24788C" opacity="1.000000" stroke="none" 
	d="
M461.696381,443.482239 
	C460.663086,444.233337 459.765747,444.824890 458.863892,444.831848 
	C449.726501,444.902557 440.586517,444.770569 431.451202,444.925934 
	C427.023682,445.001251 427.296326,441.778046 428.000214,439.517883 
	C429.201843,435.659332 423.963715,428.976654 431.269623,428.117645 
	C440.282898,427.057892 449.518707,427.754547 458.649628,428.007355 
	C459.764435,428.038208 461.652039,429.939514 461.760712,431.106262 
	C462.128479,435.055878 461.857239,439.065002 461.696381,443.482239 
z"/>
<path fill="#BDD6EC" opacity="1.000000" stroke="none" 
	d="
M455.817505,465.673035 
	C452.145416,474.240204 448.620789,482.432800 444.707764,491.528137 
	C440.369568,481.323212 436.411774,472.013092 432.235291,462.188599 
	C440.765076,462.188599 448.631836,462.188599 456.844543,462.188599 
	C456.546936,463.240875 456.255951,464.269653 455.817505,465.673035 
z"/>
<path fill="#1E6378" opacity="1.000000" stroke="none" 
	d="
M439.315643,94.948875 
	C437.931000,94.032753 436.290588,93.185280 436.211365,92.210869 
	C435.901978,88.406120 435.760712,84.526108 436.168335,80.739899 
	C436.703278,75.771339 440.954193,77.955338 443.299347,78.147079 
	C446.566833,78.414253 451.549225,75.232498 452.888275,80.772163 
	C453.762939,84.390732 453.277588,88.414429 452.902893,92.207413 
	C452.803406,93.214531 450.935913,94.693588 449.755310,94.823784 
	C446.464264,95.186714 443.107758,94.955696 439.315643,94.948875 
z"/>
<path fill="#282828" opacity="1.000000" stroke="none" 
	d="
M291.079102,275.000061 
	C291.078979,282.663269 291.088898,289.826508 291.076935,296.989685 
	C291.039062,319.619659 276.900024,333.855286 254.355881,333.870636 
	C213.542282,333.898438 172.728638,333.869568 131.915039,333.901337 
	C129.431976,333.903259 126.856369,333.865082 124.483406,334.470764 
	C116.967010,336.389374 112.037735,342.989960 111.996124,351.122375 
	C111.914314,367.114258 111.978180,383.106781 111.954620,399.099030 
	C111.952179,400.755585 111.999916,402.467529 111.620605,404.057434 
	C110.627205,408.221344 106.826744,410.882080 102.726204,410.528595 
	C98.579567,410.171143 95.056747,407.006348 95.031578,402.729218 
	C94.921822,384.073975 94.324532,365.379578 95.297958,346.772339 
	C96.201492,329.501160 111.536453,316.886993 129.918259,316.846039 
	C171.231445,316.753967 212.544983,316.833466 253.858276,316.774994 
	C256.659943,316.771027 259.563660,316.567810 262.241730,315.819519 
	C268.852264,313.972473 273.919830,307.620392 273.938354,300.619843 
	C274.054749,256.641815 274.006531,212.663315 273.995575,168.684967 
	C273.995514,168.412308 273.752747,168.139709 273.318268,167.224518 
	C270.063202,170.535614 267.036499,173.743820 263.868195,176.805481 
	C259.634644,180.896576 254.615417,181.115524 251.063370,177.512024 
	C247.580078,173.978241 247.849213,168.840225 251.955826,164.675262 
	C259.791443,156.728271 267.675232,148.827332 275.632874,141.002701 
	C280.320740,136.393188 284.880463,136.412216 289.538849,141.000137 
	C297.371826,148.714615 305.146759,156.488785 312.885498,164.297897 
	C317.447388,168.901260 317.845520,173.704407 314.149017,177.483139 
	C310.424683,181.290344 305.343628,180.807281 300.633148,176.135757 
	C297.724335,173.250992 294.882721,170.298477 291.079102,166.428207 
	C291.079102,203.375000 291.079102,238.937515 291.079102,275.000061 
z"/>
<path fill="#292929" opacity="1.000000" stroke="none" 
	d="
M128.230225,205.672821 
	C124.097130,202.736160 120.257973,199.939011 116.625366,196.895340 
	C115.125961,195.639023 114.069992,193.853470 112.092308,191.424149 
	C108.183136,195.599335 105.036201,199.189270 101.642151,202.528015 
	C97.310509,206.789047 92.506912,207.022079 88.830933,203.428177 
	C85.112312,199.792542 85.277672,194.975662 89.489914,190.631622 
	C92.733467,187.286652 96.182465,184.140915 100.884842,179.611252 
	C97.052788,176.354263 93.392021,173.546051 90.091629,170.364075 
	C85.558022,165.993134 85.290794,160.894928 89.033813,157.206924 
	C92.716774,153.578094 97.666695,154.031876 102.219818,158.438553 
	C103.776009,159.944687 105.313202,161.471817 106.820145,163.027084 
	C108.325729,164.580948 109.782608,166.182007 112.461731,169.046249 
	C115.684517,165.323334 118.536278,161.710846 121.723915,158.424118 
	C126.094711,153.917465 131.221512,153.592743 134.874298,157.257034 
	C138.512680,160.906876 138.168976,166.036667 133.721085,170.444107 
	C130.539719,173.596527 127.090698,176.478851 123.373024,179.831665 
	C127.337265,183.698578 130.464371,186.867157 133.723770,189.893219 
	C136.661346,192.620529 138.136505,195.830490 136.924240,199.738388 
	C135.698822,203.688721 132.651031,205.488480 128.230225,205.672821 
z"/>
<path fill="#292929" opacity="1.000000" stroke="none" 
	d="
M214.098846,214.877960 
	C211.963928,218.352158 210.045609,221.587494 207.671616,224.444138 
	C205.667572,226.855621 203.134949,228.827835 200.273300,231.525192 
	C204.173035,235.180573 207.796951,238.343445 211.143982,241.776276 
	C214.987152,245.717957 215.128845,250.814621 211.798141,254.254303 
	C208.203247,257.966858 203.235306,257.833984 199.004807,253.669144 
	C195.694931,250.410629 192.612823,246.920731 188.978928,243.054214 
	C185.246841,246.859177 182.081039,250.205627 178.784958,253.418427 
	C174.235870,257.852509 169.303253,258.160034 165.606445,254.378830 
	C161.885666,250.573135 162.261688,245.851578 166.880692,241.237442 
	C170.055893,238.065567 173.447296,235.110138 177.705109,231.165771 
	C173.723755,227.639816 170.248489,224.798096 167.049637,221.673416 
	C162.336594,217.069672 161.952164,212.408508 165.674545,208.554947 
	C169.401398,204.696747 174.496262,205.120331 179.202438,209.802795 
	C182.270966,212.855942 185.211777,216.037415 189.160355,220.151886 
	C192.637756,216.237946 195.777893,212.607956 199.026413,209.077682 
	C201.607681,206.272461 204.823944,205.089340 208.512009,206.451218 
	C212.137253,207.789886 214.083740,210.518539 214.098846,214.877960 
z"/>
<path fill="#282929" opacity="1.000000" stroke="none" 
	d="
M207.764893,379.840668 
	C213.204224,375.480774 216.928925,375.587830 221.548615,380.175537 
	C224.727966,383.332855 227.709381,386.689514 231.367645,390.583374 
	C235.088608,386.674408 238.269470,383.150787 241.648697,379.828979 
	C245.866043,375.683319 250.900360,375.440186 254.450012,378.992981 
	C258.052551,382.598633 257.790375,387.510803 253.719177,391.800110 
	C252.116714,393.488281 250.485489,395.156403 248.772263,396.730164 
	C247.066406,398.297089 245.241302,399.734192 242.913330,401.696045 
	C246.838242,405.532013 250.191940,408.680878 253.397537,411.973938 
	C257.800385,416.496918 258.064972,421.492462 254.246658,425.146881 
	C250.614944,428.622742 245.675552,428.319427 241.456604,424.075714 
	C238.200287,420.800293 235.209824,417.260590 231.469940,413.143494 
	C227.958267,417.008820 225.261307,420.171844 222.357361,423.131805 
	C216.945984,428.647614 212.176361,429.259552 208.161453,425.142944 
	C204.437515,421.324738 205.123444,416.289948 210.162964,411.277985 
	C213.106171,408.350891 216.168777,405.543884 220.233002,401.679413 
	C216.397461,398.286743 212.907761,395.273560 209.502243,392.168060 
	C205.714020,388.713562 204.691879,384.732361 207.764893,379.840668 
z"/>
<path fill="#2A2B2B" opacity="1.000000" stroke="none" 
	d="
M205.889481,47.994980 
	C205.886581,49.437313 205.933746,50.434696 205.872559,51.425385 
	C205.519150,57.146645 201.883240,60.951149 196.989014,60.753567 
	C192.195679,60.560062 188.977341,56.886333 188.823975,51.339478 
	C188.755310,48.855717 188.726822,46.364246 188.838974,43.883457 
	C189.071716,38.734997 192.459625,35.201824 197.116135,35.113091 
	C201.682358,35.026073 205.329102,38.530724 205.830185,43.572289 
	C205.960785,44.886158 205.875580,46.221478 205.889481,47.994980 
z"/>
</svg>