<svg version="1.1" id="Layer_1" xmlns="http://www.w3.org/2000/svg" xmlns:xlink="http://www.w3.org/1999/xlink" x="0px" y="0px"
	 width="100%" viewBox="0 0 64 64" enable-background="new 0 0 64 64" xml:space="preserve">
<path fill="#000101" opacity="1.000000" stroke="none" 
	d="
M35.000000,65.000000 
	C23.355185,65.000000 12.210369,65.000000 1.032777,65.000000 
	C1.032777,43.730305 1.032777,22.460548 1.032777,1.095395 
	C22.227612,1.095395 43.455791,1.095395 64.841988,1.095395 
	C64.841988,22.332405 64.841988,43.666084 64.841988,65.000000 
	C55.128159,65.000000 45.314079,65.000000 35.000000,65.000000 
M35.312698,35.790909 
	C38.919472,35.863167 42.547024,36.174652 46.120548,35.864223 
	C47.215267,35.769123 48.161850,33.968742 49.927906,32.933464 
	C51.058395,32.223167 52.188885,31.512873 54.376984,30.138077 
	C55.523026,31.988918 56.815582,34.076389 58.108143,36.163857 
	C58.315342,35.846394 58.522541,35.528931 58.729740,35.211468 
	C58.223141,32.364883 57.716541,29.518299 57.039093,25.711723 
	C54.271164,26.118475 51.137917,26.578909 47.885937,26.514795 
	C43.874252,26.028906 41.533920,23.210001 40.002354,20.867691 
	C36.495983,21.418997 33.686214,21.860777 30.179222,22.248220 
	C29.481928,22.290457 28.784636,22.332695 27.290813,22.212730 
	C26.209774,22.210785 25.128735,22.208841 23.362549,22.049471 
	C18.874504,18.467274 15.368139,20.129618 12.282863,24.106997 
	C13.012919,24.801563 13.728607,25.482458 14.557209,26.270779 
	C12.389354,27.379940 10.639495,28.275236 8.302626,29.195065 
	C5.610861,32.345898 4.789613,35.890503 6.339285,40.489910 
	C11.503630,44.713215 13.377247,44.740898 18.321957,41.246563 
	C19.154675,40.658096 20.888281,40.736710 21.938395,41.163956 
	C27.965944,43.616306 30.048841,42.528584 31.904749,36.022118 
	C32.756603,35.873039 33.608456,35.723965 35.312698,35.790909 
z"/>
<path fill="#273444" opacity="1.000000" stroke="none" 
	d="
M31.043211,36.131447 
	C30.048841,42.528584 27.965944,43.616306 21.938395,41.163956 
	C20.888281,40.736710 19.154675,40.658096 18.321957,41.246563 
	C13.377247,44.740898 11.503630,44.713215 6.456079,40.184692 
	C7.429314,39.925507 8.285754,39.971535 9.448874,39.922523 
	C10.565220,39.736275 11.376562,39.554737 12.184260,39.569714 
	C15.437212,39.630043 17.223166,38.110844 16.956839,34.824871 
	C16.714170,31.830820 15.595793,29.436556 11.517460,30.005943 
	C10.421086,29.735657 9.655361,29.453096 8.889636,29.170534 
	C10.639495,28.275236 12.389354,27.379940 14.557209,26.270779 
	C13.728607,25.482458 13.012919,24.801563 12.282863,24.106997 
	C15.368139,20.129618 18.874504,18.467274 23.726723,22.467716 
	C24.054779,26.295671 24.018660,29.705385 23.624416,33.094799 
	C22.265392,33.421757 21.264498,33.769016 20.144178,34.157707 
	C23.567051,39.284077 27.477747,36.265556 31.043211,36.131447 
z"/>
<path fill="#273444" opacity="1.000000" stroke="none" 
	d="
M30.876444,22.302557 
	C33.686214,21.860777 36.495983,21.418997 40.002354,20.867691 
	C41.533920,23.210001 43.874252,26.028906 47.940758,27.093178 
	C48.004566,28.092827 48.013554,28.514091 47.721481,29.087040 
	C45.652744,29.845240 43.885063,30.451757 42.031128,31.262447 
	C41.792953,31.760149 41.551743,31.907969 41.020882,31.614458 
	C39.234016,27.300051 35.675335,26.568401 31.976810,25.751356 
	C31.935671,25.290236 31.919641,25.105749 31.794121,24.663067 
	C31.415236,23.704102 31.145840,23.003328 30.876444,22.302557 
z"/>
<path fill="#353F4D" opacity="1.000000" stroke="none" 
	d="
M31.903612,24.921263 
	C31.919641,25.105749 31.935671,25.290236 31.975403,26.178137 
	C31.998829,28.863298 31.998550,30.845043 31.599804,32.863453 
	C28.795071,32.971775 26.388805,33.043438 23.982542,33.115097 
	C24.018660,29.705385 24.054779,26.295671 24.069298,22.546429 
	C25.128735,22.208841 26.209774,22.210785 27.752136,22.609116 
	C29.443510,23.644087 30.673561,24.282675 31.903612,24.921263 
z"/>
<path fill="#848689" opacity="1.000000" stroke="none" 
	d="
M48.022545,28.935358 
	C48.013554,28.514091 48.004566,28.092827 48.000126,27.355452 
	C51.137917,26.578909 54.271164,26.118475 57.039093,25.711723 
	C57.716541,29.518299 58.223141,32.364883 58.729740,35.211468 
	C58.522541,35.528931 58.315342,35.846394 58.108143,36.163857 
	C56.815582,34.076389 55.523026,31.988918 54.376984,30.138077 
	C52.188885,31.512873 51.058395,32.223167 49.437317,32.712921 
	C48.647675,32.083267 48.348629,31.674162 48.232441,31.069180 
	C48.284382,30.227324 48.153461,29.581341 48.022545,28.935358 
z"/>
<path fill="#00A8EC" opacity="1.000000" stroke="none" 
	d="
M48.049583,31.265055 
	C48.348629,31.674162 48.647675,32.083267 49.061497,32.720825 
	C48.161850,33.968742 47.215267,35.769123 46.120548,35.864223 
	C42.547024,36.174652 38.919472,35.863167 34.846951,35.357841 
	C34.152260,34.317059 33.923317,33.709339 34.145679,33.075241 
	C36.805069,32.669262 39.013153,32.289669 41.221237,31.910076 
	C41.551743,31.907969 41.792953,31.760149 42.346077,31.410269 
	C44.514713,31.324297 46.282150,31.294676 48.049583,31.265055 
z"/>
<path fill="#003487" opacity="1.000000" stroke="none" 
	d="
M33.694374,33.101624 
	C33.923317,33.709339 34.152260,34.317059 34.420757,35.249832 
	C33.608456,35.723965 32.756603,35.873039 31.473980,36.076782 
	C27.477747,36.265556 23.567051,39.284077 20.144178,34.157707 
	C21.264498,33.769016 22.265392,33.421757 23.624416,33.094799 
	C26.388805,33.043438 28.795071,32.971775 31.883736,32.912682 
	C32.942215,32.984039 33.318295,33.042835 33.694374,33.101624 
z"/>
<path fill="#0199ED" opacity="1.000000" stroke="none" 
	d="
M9.142195,40.017563 
	C8.285754,39.971535 7.429314,39.925507 6.313688,39.876873 
	C4.789613,35.890503 5.610861,32.345898 8.596130,29.182800 
	C9.655361,29.453096 10.421086,29.735657 11.467417,30.362135 
	C10.879413,33.809887 10.010804,36.913727 9.142195,40.017563 
z"/>
<path fill="#454E59" opacity="1.000000" stroke="none" 
	d="
M31.794121,24.663067 
	C30.673561,24.282675 29.443510,23.644087 28.150398,22.690216 
	C28.784636,22.332695 29.481928,22.290457 30.527832,22.275389 
	C31.145840,23.003328 31.415236,23.704102 31.794121,24.663067 
z"/>
<path fill="#06080A" opacity="1.000000" stroke="none" 
	d="
M9.448874,39.922523 
	C10.010804,36.913727 10.879413,33.809887 11.798064,30.349857 
	C15.595793,29.436556 16.714170,31.830820 16.956839,34.824871 
	C17.223166,38.110844 15.437212,39.630043 12.184260,39.569714 
	C11.376562,39.554737 10.565220,39.736275 9.448874,39.922523 
z"/>
<path fill="#454E59" opacity="1.000000" stroke="none" 
	d="
M34.145679,33.075241 
	C33.318295,33.042835 32.942215,32.984039 32.282204,32.876019 
	C31.998550,30.845043 31.998829,28.863298 32.000511,26.454771 
	C35.675335,26.568401 39.234016,27.300051 41.020882,31.614458 
	C39.013153,32.289669 36.805069,32.669262 34.145679,33.075241 
z"/>
<path fill="#AAB6CE" opacity="1.000000" stroke="none" 
	d="
M48.232441,31.069180 
	C46.282150,31.294676 44.514713,31.324297 42.432335,31.206097 
	C43.885063,30.451757 45.652744,29.845240 47.721481,29.087040 
	C48.153461,29.581341 48.284382,30.227324 48.232441,31.069180 
z"/>
</svg>